<?xml version="1.0" encoding="utf-8"?>
<!-- Generator: Adobe Illustrator 17.0.0, SVG Export Plug-In . SVG Version: 6.00 Build 0)  -->
<!DOCTYPE svg PUBLIC "-//W3C//DTD SVG 1.1//EN" "http://www.w3.org/Graphics/SVG/1.1/DTD/svg11.dtd">
<svg version="1.1" id="Calque_1" xmlns="http://www.w3.org/2000/svg" xmlns:xlink="http://www.w3.org/1999/xlink" x="0px" y="0px"
	 width="67px" height="67px" viewBox="0 0 67 67" enable-background="new 0 0 67 67" xml:space="preserve">
<g>
	<path fill="#604D31" d="M33.5,5.011c15.708,0,28.488,12.78,28.488,28.489S49.208,61.989,33.5,61.989S5.013,49.209,5.013,33.5
		S17.792,5.011,33.5,5.011 M33.5,0C14.998,0,0,14.998,0,33.5S14.998,67,33.5,67S67,52.002,67,33.5S52.002,0,33.5,0L33.5,0z"/>
</g>
<path fill="none" stroke="#604D31" stroke-width="4" stroke-miterlimit="10" d="M49.025,61.214
	c5.82-14.907-5.564-29.138-21.692-29.138c-10.436-0.949-12.333-16.128-9.351-26.313"/>
<path fill="none" stroke="#604D31" stroke-width="4" stroke-miterlimit="10" d="M5.766,49.017
	c14.927,5.828,29.157-5.556,29.157-21.684C35.872,16.897,51.051,15,61.236,17.982"/>
<circle fill="#604D31" cx="39.167" cy="47.064" r="3.5"/>
<circle fill="#604D31" cx="49.333" cy="33.634" r="3.5"/>
<circle fill="#604D31" cx="30.833" cy="13.205" r="3.5"/>
<circle fill="#604D31" cx="10" cy="38.205" r="3.5"/>
<circle fill="#604D31" cx="27.333" cy="52.205" r="3.5"/>
<circle fill="#604D31" cx="26.5" cy="26.634" r="3.5"/>
<circle fill="#604D31" cx="57.736" cy="43.564" r="3.5"/>
<circle fill="#604D31" cx="45.833" cy="13.205" r="3.5"/>
</svg>
