<?xml version="1.0" encoding="utf-8"?>
<!-- Generator: Adobe Illustrator 17.0.0, SVG Export Plug-In . SVG Version: 6.00 Build 0)  -->
<!DOCTYPE svg PUBLIC "-//W3C//DTD SVG 1.1//EN" "http://www.w3.org/Graphics/SVG/1.1/DTD/svg11.dtd">
<svg version="1.1" id="Calque_1" xmlns="http://www.w3.org/2000/svg" xmlns:xlink="http://www.w3.org/1999/xlink" x="0px" y="0px"
	 width="67px" height="67px" viewBox="0 0 67 67" enable-background="new 0 0 67 67" xml:space="preserve">
<g>
	<path fill="#604D31" d="M33.5,5.011c15.708,0,28.488,12.78,28.488,28.489S49.208,61.989,33.5,61.989S5.013,49.209,5.013,33.5
		S17.792,5.011,33.5,5.011 M33.5,0C14.998,0,0,14.998,0,33.5S14.998,67,33.5,67S67,52.002,67,33.5S52.002,0,33.5,0L33.5,0z"/>
</g>
<g>
	<g>
		<line fill="none" stroke="#604D31" stroke-width="5" stroke-miterlimit="10" x1="18.929" y1="28.166" x2="55.917" y2="28.166"/>
		<g>
			<path fill="#604D31" d="M11.083,28.166c3.692,1.37,8.272,3.707,11.112,6.183l-2.236-6.183l2.236-6.181
				C19.356,24.46,14.775,26.797,11.083,28.166z"/>
		</g>
	</g>
</g>
<g>
	<g>
		<line fill="none" stroke="#604D31" stroke-width="5" stroke-miterlimit="10" x1="48.071" y1="38.834" x2="11.083" y2="38.834"/>
		<g>
			<path fill="#604D31" d="M55.917,38.834c-3.692-1.37-8.272-3.707-11.112-6.183l2.236,6.183l-2.236,6.181
				C47.644,42.54,52.225,40.203,55.917,38.834z"/>
		</g>
	</g>
</g>
</svg>
