<?xml version="1.0" encoding="utf-8"?>
<!-- Generator: Adobe Illustrator 17.0.0, SVG Export Plug-In . SVG Version: 6.00 Build 0)  -->
<!DOCTYPE svg PUBLIC "-//W3C//DTD SVG 1.1//EN" "http://www.w3.org/Graphics/SVG/1.1/DTD/svg11.dtd">
<svg version="1.1" id="Calque_1" xmlns="http://www.w3.org/2000/svg" xmlns:xlink="http://www.w3.org/1999/xlink" x="0px" y="0px"
	 width="67px" height="67px" viewBox="0 0 67 67" enable-background="new 0 0 67 67" xml:space="preserve">
<g>
	<path fill="#604D31" d="M33.5,5.011c15.708,0,28.488,12.78,28.488,28.489S49.208,61.989,33.5,61.989S5.013,49.209,5.013,33.5
		S17.792,5.011,33.5,5.011 M33.5,0C14.998,0,0,14.998,0,33.5S14.998,67,33.5,67S67,52.002,67,33.5S52.002,0,33.5,0L33.5,0z"/>
</g>
<circle fill="#604D31" cx="37" cy="15" r="3.5"/>
<circle fill="#604D31" cx="17.333" cy="20.833" r="3.5"/>
<circle fill="#604D31" cx="33.5" cy="35.667" r="3.5"/>
<circle fill="#604D31" cx="19" cy="47.833" r="3.5"/>
<circle fill="#604D31" cx="22.5" cy="32.167" r="3.5"/>
<circle fill="#604D31" cx="37" cy="54.833" r="3.5"/>
<circle fill="#604D31" cx="52.833" cy="40.833" r="3.5"/>
<circle fill="#604D31" cx="45.833" cy="26.667" r="3.5"/>
<circle fill="#604D31" cx="12" cy="35.667" r="3.5"/>
<circle fill="#604D31" cx="40.5" cy="44.333" r="3.5"/>
<circle fill="#604D31" cx="49.333" cy="17.333" r="3.5"/>
</svg>
