<?xml version="1.0" encoding="utf-8"?>
<!-- Generator: Adobe Illustrator 17.0.0, SVG Export Plug-In . SVG Version: 6.00 Build 0)  -->
<!DOCTYPE svg PUBLIC "-//W3C//DTD SVG 1.1//EN" "http://www.w3.org/Graphics/SVG/1.1/DTD/svg11.dtd">
<svg version="1.1" id="Calque_1" xmlns="http://www.w3.org/2000/svg" xmlns:xlink="http://www.w3.org/1999/xlink" x="0px" y="0px"
	 width="67px" height="67px" viewBox="0 0 67 67" enable-background="new 0 0 67 67" xml:space="preserve">
<g>
	<path fill="#604D31" d="M33.5,5.011c15.708,0,28.488,12.78,28.488,28.489S49.208,61.989,33.5,61.989S5.013,49.209,5.013,33.5
		S17.792,5.011,33.5,5.011 M33.5,0C14.998,0,0,14.998,0,33.5S14.998,67,33.5,67S67,52.002,67,33.5S52.002,0,33.5,0L33.5,0z"/>
</g>
<g>
	<path fill="#604D31" d="M30.938,34.033c3.169-13.805,14.017-18.484,19.371-19.975c-0.599-0.846-1.322-1.57-2.175-2.149
		c-6.662-4.516-18.615,1.491-26.697,13.415c-6.037,8.907-8.206,18.596-6.141,24.811C19.096,49.548,28.006,46.808,30.938,34.033z"/>
	<path fill="#604D31" d="M51.73,16.951c-4.372,1.044-14.706,4.847-17.679,17.796c-2.221,9.676-7.646,14.262-11.807,16.406
		c-2.018,1.04-3.93,1.616-5.446,1.937c0.577,0.782,1.264,1.457,2.067,2.002c6.662,4.516,18.615-1.491,26.697-13.415
		C51.573,32.809,53.747,23.17,51.73,16.951z"/>
</g>
</svg>
